<?xml version="1.0" standalone="no"?>
<!DOCTYPE svg PUBLIC "-//W3C//DTD SVG 20010904//EN"
 "http://www.w3.org/TR/2001/REC-SVG-20010904/DTD/svg10.dtd">
<svg version="1.0" xmlns="http://www.w3.org/2000/svg"
 width="283.000000pt" height="283.000000pt" viewBox="0 0 283.000000 283.000000"
 preserveAspectRatio="xMidYMid meet">
<metadata>
Created by potrace 1.14, written by Peter Selinger 2001-2017
</metadata>
<g transform="translate(0.000000,283.000000) scale(0.100000,-0.100000)"
fill="#000000" stroke="none">
<path d="M1305 1948 c-20 -90 1 -171 57 -218 l30 -25 -18 -45 c-23 -61 -30
-67 -26 -21 3 33 -1 45 -33 80 -21 23 -41 41 -46 41 -15 0 -10 -79 6 -110 8
-16 24 -31 35 -35 12 -4 20 -15 20 -29 0 -24 -41 -87 -79 -120 -23 -21 -28
-46 -8 -46 15 0 37 20 37 34 0 5 -10 1 -22 -10 l-23 -19 19 22 c10 13 22 20
26 18 4 -2 15 4 25 14 16 19 18 19 62 -5 25 -13 56 -24 68 -24 35 0 122 29
135 45 27 32 -122 85 -187 66 -18 -5 -33 -6 -33 -2 0 17 27 31 62 31 84 0 155
70 193 190 7 22 5 23 -31 17 -22 -3 -47 -8 -57 -12 -15 -6 -17 -4 -13 16 13
59 10 129 -6 129 -7 0 -29 -16 -49 -36 -36 -35 -37 -36 -44 -14 -8 24 -72 100
-85 100 -5 0 -12 -14 -15 -32z m59 -29 c31 -36 41 -71 29 -94 -8 -13 -12 -8
-22 25 -7 23 -14 40 -16 38 -2 -2 2 -25 10 -50 7 -26 11 -56 8 -68 -14 -55
-63 30 -63 111 0 79 12 88 54 38z m123 -132 c-16 -36 -77 -89 -77 -65 0 7 11
37 25 66 14 30 25 57 25 60 0 15 -28 -37 -45 -81 -14 -38 -20 -45 -27 -32 -12
21 5 73 43 124 32 45 57 57 39 19 -11 -22 -10 -22 4 -4 9 11 17 25 18 30 1 6
3 -10 5 -36 2 -26 -2 -61 -10 -81z m93 -5 c0 -17 -169 -152 -190 -152 -16 0
14 70 32 76 11 3 34 18 51 33 40 35 107 62 107 43z m-27 -90 c-31 -51 -96 -92
-145 -92 -40 0 -35 11 23 45 27 16 71 48 97 71 26 23 49 38 51 32 1 -5 -10
-30 -26 -56z m-233 6 c27 -44 26 -66 -2 -64 -25 1 -52 45 -46 74 3 12 10 6 26
-23 11 -22 21 -35 21 -30 0 6 -6 21 -14 35 -28 49 -14 56 15 8z m194 -167 c44
-24 42 -37 -10 -55 -62 -21 -76 -20 -127 5 -37 19 -40 23 -22 30 18 7 18 8 2
8 -27 1 -11 19 26 29 40 11 93 4 131 -17z"/>
<path d="M1330 1935 c0 -5 5 -17 10 -25 5 -8 10 -10 10 -5 0 6 -5 17 -10 25
-5 8 -10 11 -10 5z"/>
<path d="M1396 1522 c-2 -4 4 -9 15 -9 10 -1 19 2 19 8 0 11 -27 12 -34 1z"/>
<path d="M1440 1518 c0 -4 21 -8 48 -7 52 1 48 6 -10 11 -21 2 -38 0 -38 -4z"/>
<path d="M350 1244 c-44 -16 -64 -33 -88 -74 -23 -38 -27 -56 -27 -125 0 -69
4 -86 27 -125 32 -56 67 -75 128 -74 97 3 145 69 144 199 0 124 -42 188 -131
199 -21 3 -45 3 -53 0z m110 -52 c71 -71 64 -253 -11 -306 -13 -9 -43 -16 -67
-16 -34 0 -49 6 -72 28 -66 67 -67 220 -1 291 24 26 36 31 76 31 38 0 52 -5
75 -28z"/>
<path d="M1580 1237 c-21 -8 -45 -28 -64 -55 -28 -40 -31 -50 -31 -130 0 -138
47 -205 146 -206 84 -2 136 54 149 158 14 117 -20 199 -97 232 -39 17 -57 17
-103 1z m128 -46 c68 -69 68 -224 -1 -292 -22 -23 -38 -29 -71 -29 -23 0 -52
7 -65 16 -80 56 -80 262 0 318 13 9 42 16 65 16 34 0 49 -6 72 -29z"/>
<path d="M2002 1243 c-67 -13 -119 -120 -110 -226 9 -108 63 -170 149 -171 82
-2 135 53 149 154 16 115 -20 204 -97 236 -32 14 -48 15 -91 7z m97 -38 c84
-43 92 -257 12 -314 -35 -25 -97 -27 -130 -5 -80 56 -80 262 0 318 29 20 81
21 118 1z"/>
<path d="M675 1228 c-3 -8 -4 -94 -3 -193 2 -132 6 -179 16 -183 9 -3 12 20
12 93 l0 97 83 -4 c49 -2 83 1 85 7 1 6 -33 11 -83 13 l-85 3 0 74 0 74 98 3
c133 4 126 22 -11 26 -82 2 -109 0 -112 -10z"/>
<path d="M978 1235 c-3 -3 16 -90 41 -193 34 -135 52 -188 63 -190 12 -2 24
32 57 160 23 90 43 167 45 173 2 9 18 -44 68 -240 37 -143 47 -133 102 96 26
106 44 194 41 197 -14 15 -31 -30 -65 -180 -21 -90 -40 -156 -43 -148 -4 8
-24 85 -45 170 -27 110 -43 156 -54 158 -12 2 -24 -34 -58 -168 -24 -94 -47
-165 -50 -158 -4 7 -19 67 -34 133 -44 197 -49 209 -68 190z"/>
<path d="M2338 1234 c-5 -4 -8 -93 -8 -197 l0 -190 79 5 c97 6 137 27 169 88
19 38 23 57 20 120 -3 85 -26 128 -81 157 -34 17 -167 30 -179 17z m182 -49
c38 -35 53 -76 52 -143 -1 -120 -71 -177 -199 -163 -10 1 -13 42 -13 167 l0
166 69 -4 c51 -3 75 -9 91 -23z"/>
</g>
</svg>
